<?xml version="1.0" standalone="no"?>
<!DOCTYPE svg PUBLIC "-//W3C//DTD SVG 20010904//EN"
 "http://www.w3.org/TR/2001/REC-SVG-20010904/DTD/svg10.dtd">
<svg version="1.0" xmlns="http://www.w3.org/2000/svg"
 width="460.000000pt" height="460.000000pt" viewBox="0 0 460.000000 460.000000"
 preserveAspectRatio="xMidYMid meet">

<g transform="translate(0.000000,460.000000) scale(0.100000,-0.100000)"
fill="#000000" stroke="none">
<path d="M1550 4541 c-151 -49 -245 -129 -300 -255 l-33 -75 -91 6 c-52 3
-117 1 -150 -6 -95 -18 -202 -76 -276 -151 -119 -121 -176 -270 -167 -439 3
-53 8 -105 12 -116 5 -17 -1 -24 -32 -39 -106 -50 -195 -155 -244 -286 -21
-56 -24 -82 -24 -190 0 -97 4 -135 18 -169 l18 -43 -56 -56 c-124 -121 -185
-264 -185 -432 0 -146 53 -283 152 -394 l50 -57 -30 -57 c-36 -68 -72 -198
-72 -262 0 -57 32 -176 66 -243 48 -93 172 -205 266 -237 l36 -13 0 -91 c-2
-266 147 -500 379 -593 87 -35 190 -49 276 -35 40 6 80 14 88 17 10 4 28 -15
56 -58 95 -144 244 -227 407 -227 129 0 229 42 324 136 108 108 142 219 142
467 1 129 3 149 14 135 10 -14 28 -18 74 -18 33 0 64 5 67 10 4 6 107 10 276
10 l269 0 0 -325 0 -326 -37 7 c-108 19 -204 82 -261 169 -57 87 -65 114 -70
238 l-4 117 -49 0 -49 0 0 -82 c0 -303 214 -538 491 -538 182 0 363 114 441
278 l32 67 130 0 c114 1 139 4 191 24 234 93 380 329 362 583 -3 46 -9 92 -12
103 -5 16 3 25 42 45 201 104 307 367 247 609 l-17 65 39 30 c64 51 93 87 131
163 43 88 62 172 63 283 0 152 -53 302 -143 404 l-43 49 26 51 c137 264 27
612 -233 739 l-74 36 -6 128 c-4 105 -10 140 -31 196 -85 222 -258 365 -477
396 -68 9 -176 3 -231 -15 -12 -4 -27 11 -54 53 -146 228 -415 297 -650 166
-95 -53 -178 -175 -210 -308 -20 -88 -20 -508 1 -558 8 -20 15 -39 15 -42 0
-3 -22 -5 -50 -5 l-50 0 0 105 0 105 -80 0 -80 0 0 153 c0 170 -13 245 -60
341 -102 212 -356 327 -570 257z m277 -103 c72 -27 134 -77 182 -149 71 -106
76 -137 76 -439 l0 -265 -105 0 -105 0 -3 358 -2 357 -100 0 -100 0 0 86 0 86
53 -7 c28 -4 75 -16 104 -27z m1186 1 c28 -11 69 -34 92 -50 37 -27 125 -133
125 -150 0 -5 -26 -26 -57 -48 -32 -21 -72 -54 -89 -72 -40 -43 -104 -137
-104 -153 0 -10 59 -46 74 -46 2 0 16 21 31 46 59 101 161 180 278 216 55 16
86 19 155 16 103 -6 166 -26 243 -79 263 -178 306 -568 89 -813 -70 -79 -225
-156 -317 -156 -30 0 -36 -5 -49 -36 -12 -29 -18 -34 -37 -28 -12 4 -24 10
-27 14 -3 4 -16 11 -29 15 -54 17 -62 34 -59 136 l3 94 113 3 112 3 0 108 0
109 28 10 c43 15 103 72 123 117 21 46 24 134 6 181 -37 95 -138 150 -245 133
-110 -17 -182 -104 -182 -219 0 -99 51 -175 143 -211 26 -10 27 -14 27 -75 l0
-64 -172 2 c-171 3 -173 3 -176 26 -2 12 -7 22 -12 22 -5 0 -12 15 -15 33 -12
55 -16 57 -156 57 l-129 0 0 110 0 109 32 17 c41 21 62 42 82 81 38 75 7 174
-67 218 -80 46 -169 28 -231 -48 -25 -32 -29 -45 -29 -97 0 -52 4 -65 29 -98
17 -20 44 -44 62 -52 l32 -15 0 -113 0 -113 -87 3 -86 3 -14 40 c-11 31 -13
98 -11 305 l3 265 29 60 c88 178 286 256 469 184z m-1433 -114 l0 -125 100 0
100 0 0 -100 0 -100 -133 0 -133 0 -37 44 c-20 25 -66 64 -102 87 -36 23 -65
47 -65 54 0 32 52 125 95 167 43 43 132 97 163 98 9 0 12 -31 12 -125z m-395
-210 c103 -27 173 -74 258 -173 l27 -32 155 0 155 0 0 -165 0 -165 -120 0
-120 0 0 40 0 40 -114 0 -113 0 -7 30 c-9 47 -84 115 -150 136 -49 16 -63 16
-104 5 -100 -26 -165 -92 -177 -180 -13 -93 17 -164 92 -221 44 -33 50 -35
129 -35 76 0 85 2 126 31 27 20 54 52 72 88 l30 57 60 -3 c55 -3 61 -5 64 -26
3 -22 -70 -184 -95 -210 -6 -6 -15 -21 -18 -32 -4 -11 -37 -50 -73 -86 l-67
-66 -100 5 c-114 6 -190 29 -262 78 -198 137 -266 410 -158 633 97 201 306
304 510 251z m1608 -76 c74 -34 44 -148 -39 -149 -33 0 -69 30 -76 65 -6 28
19 74 45 85 30 12 42 12 70 -1z m811 -159 c31 -34 36 -47 36 -89 0 -117 -140
-175 -224 -92 -28 28 -31 37 -31 92 0 57 2 62 37 95 33 30 44 34 92 34 50 0
56 -3 90 -40z m-2435 -159 c24 -13 61 -80 61 -110 0 -63 -69 -131 -132 -131
-72 0 -138 65 -138 137 0 22 41 102 53 103 1 0 20 6 41 14 40 14 71 10 115
-13z m1081 -81 l0 -60 -35 0 -35 0 0 60 0 60 35 0 35 0 0 -60z m1888 -199 c41
-21 122 -100 151 -147 45 -74 63 -146 64 -249 0 -87 -4 -109 -28 -170 -16 -38
-29 -71 -30 -73 -1 -1 -31 11 -65 27 -35 17 -89 36 -119 42 -69 14 -214 7
-262 -14 -69 -28 -119 -101 -138 -197 -22 -116 -21 -115 -79 -118 l-52 -3 0
55 c0 30 4 57 9 60 5 4 12 60 16 126 4 66 11 120 16 120 5 0 9 34 9 75 l0 75
-32 1 c-28 0 -23 4 28 19 96 28 184 75 246 130 64 57 141 167 164 234 17 50
18 50 102 7z m-3548 -62 c0 -16 61 -107 102 -150 66 -71 183 -138 273 -155
l40 -8 -40 -11 -40 -12 -3 -82 c-2 -46 1 -88 6 -94 6 -7 13 -67 17 -135 4 -67
11 -125 16 -128 5 -3 9 -18 9 -35 l0 -29 -125 0 -125 0 0 -155 0 -155 -80 0
c-78 0 -80 1 -95 29 -23 45 -73 71 -138 71 -51 0 -60 -3 -96 -38 -102 -97 -37
-260 104 -261 47 -1 94 25 126 68 l23 31 123 0 123 0 0 155 0 155 89 0 90 0 6
-57 c4 -32 9 -65 12 -73 4 -8 8 -27 10 -42 4 -24 -1 -29 -44 -48 -48 -20 -49
-22 -73 -98 -71 -231 -153 -312 -315 -312 -190 0 -350 119 -425 315 -18 47
-23 82 -24 160 -1 148 37 246 136 351 l48 51 74 -73 c41 -41 80 -74 88 -74 8
0 23 15 33 34 l18 33 -65 64 c-72 71 -99 116 -122 206 -41 157 2 321 114 432
65 66 130 100 130 70z m2380 -10 c0 -21 93 -204 123 -244 66 -85 197 -179 266
-190 70 -12 81 -20 77 -62 -2 -21 -7 -72 -10 -113 -7 -72 -24 -209 -46 -355
-6 -38 -15 -101 -21 -140 -5 -38 -13 -81 -18 -95 -5 -14 -12 -46 -16 -72 -3
-26 -10 -50 -16 -53 -5 -4 -9 -15 -9 -26 0 -56 -86 -235 -141 -292 -8 -8 -21
-25 -29 -38 -22 -33 -294 -305 -365 -364 -33 -28 -80 -68 -105 -91 -25 -22
-52 -46 -60 -52 -8 -6 -46 -38 -85 -69 -38 -32 -74 -61 -80 -65 -5 -5 -32 -26
-60 -48 -82 -66 -129 -53 -275 74 -20 17 -58 49 -84 71 -204 168 -254 213
-411 370 -131 131 -229 247 -273 323 -15 28 -41 97 -52 142 -18 71 -33 125
-40 145 -13 32 -76 441 -85 545 -2 30 -9 95 -15 144 -6 50 -8 96 -6 103 3 7
21 13 43 13 21 0 51 7 67 15 15 8 32 15 37 15 30 0 162 117 209 185 41 60 89
153 100 196 l11 39 684 0 c487 0 685 -3 685 -11z m268 -66 c3 -47 -13 -58 -28
-19 -5 13 -14 27 -19 31 -23 14 -12 36 17 33 24 -3 27 -7 30 -45z m884 -532
c121 -42 189 -92 252 -189 44 -69 86 -189 86 -250 l0 -32 -460 0 -461 0 7 63
c4 34 9 64 11 67 3 3 48 7 101 10 l97 5 16 65 c9 36 22 90 29 120 18 80 47
127 89 144 52 21 166 20 233 -3z m-3676 -539 c24 -16 35 -51 23 -74 -15 -29
-28 -38 -55 -38 -51 0 -80 64 -45 99 21 21 56 27 77 13z m4004 -38 c0 -30 -31
-124 -56 -168 -40 -72 -123 -145 -132 -117 -8 23 -72 89 -122 126 l-47 35
-299 2 c-259 3 -299 5 -297 18 2 14 9 47 19 98 l4 22 465 0 c419 0 465 -2 465
-16z m-3401 -94 c5 0 11 -23 14 -51 4 -28 10 -56 15 -63 5 -6 12 -28 15 -49 3
-21 15 -58 27 -81 23 -49 22 -54 -51 -220 l-41 -95 -57 -12 c-174 -35 -339
-177 -413 -356 -20 -49 -25 -54 -47 -48 -59 15 -132 70 -184 138 -80 105 -109
222 -84 335 17 75 50 154 72 172 10 8 29 4 77 -17 57 -25 74 -27 188 -28 114
0 129 2 174 25 97 50 170 148 216 290 13 41 33 83 45 94 20 18 20 18 23 -8 2
-14 7 -26 11 -26z m3080 -177 c31 -32 69 -83 84 -113 30 -61 52 -159 39 -172
-5 -5 -44 -8 -88 -6 l-79 3 -3 128 -3 127 -194 0 -195 0 0 -45 0 -45 150 0
150 0 0 -130 0 -130 131 0 132 0 -6 -41 c-12 -87 -97 -213 -178 -265 -49 -31
-61 -30 -76 4 -33 73 -205 242 -247 242 -7 0 -20 -18 -29 -40 l-15 -40 30 -16
c17 -9 53 -37 80 -62 203 -190 207 -528 8 -722 -65 -64 -114 -93 -199 -115
-122 -31 -242 -11 -351 60 -36 24 -78 59 -93 78 l-27 36 0 270 0 271 -146 0
-146 0 29 24 c40 34 351 345 360 360 8 14 66 84 96 117 9 10 17 23 17 29 0 12
41 23 67 18 16 -3 18 -16 21 -111 l3 -107 -93 -2 c-51 0 -105 0 -120 1 -27 2
-28 1 -28 -48 l0 -51 120 0 120 0 0 -92 -1 -93 -51 -25 c-60 -29 -101 -80
-117 -146 -34 -134 72 -273 209 -274 162 0 257 123 223 291 -8 44 -97 134
-141 144 l-32 7 0 299 0 299 -56 0 c-63 0 -59 -11 -33 93 l12 47 304 0 305 0
57 -57z m-2791 -380 c17 -18 32 -38 32 -43 0 -6 7 -10 15 -10 8 0 15 -6 15
-14 0 -9 -8 -12 -25 -8 -59 11 -133 -27 -163 -85 -16 -30 -15 -108 2 -141 41
-79 156 -103 229 -48 20 16 40 39 43 52 6 22 11 24 69 24 60 0 64 -1 99 -40
20 -22 38 -40 41 -40 3 0 24 -16 45 -37 40 -36 40 -37 40 -110 l0 -73 -255 0
c-241 0 -255 1 -255 18 0 31 -56 99 -107 129 -39 22 -60 28 -108 28 -173 -1
-276 -169 -199 -323 36 -73 96 -113 178 -119 89 -8 153 21 200 91 20 28 36 59
36 69 0 16 22 17 300 17 l300 0 0 75 c0 43 4 75 10 75 10 0 92 -69 98 -82 2
-5 8 -8 14 -8 5 0 23 -12 38 -27 16 -16 37 -34 46 -42 14 -12 16 -37 11 -220
-3 -148 -9 -219 -20 -253 -37 -111 -106 -191 -206 -236 -48 -22 -70 -25 -151
-25 -86 0 -101 3 -155 31 -70 36 -131 90 -168 149 -15 24 -27 44 -27 46 0 3
19 17 41 32 67 44 129 106 170 169 22 33 39 63 39 68 0 4 -18 17 -40 28 l-40
20 -20 -40 c-29 -56 -84 -115 -150 -160 -156 -106 -371 -108 -521 -6 -73 49
-79 54 -121 106 -199 249 -134 646 132 802 54 31 170 68 214 68 29 0 33 4 56
63 13 34 37 91 52 125 l28 64 53 -62 c28 -35 67 -78 85 -97z m35 -174 c29 -16
37 -28 37 -61 0 -21 -8 -32 -31 -44 -30 -15 -33 -15 -58 4 -14 10 -28 27 -29
37 -5 23 17 63 37 68 9 3 17 5 19 6 2 0 13 -4 25 -10z m2194 -235 c83 -54 81
-169 -3 -225 -81 -53 -196 15 -196 116 0 101 115 164 199 109z m-517 -260 c0
-150 4 -233 11 -247 26 -49 95 -119 155 -159 35 -23 64 -49 64 -58 0 -26 -55
-113 -103 -161 -39 -41 -157 -109 -187 -109 -6 0 -10 129 -10 365 l0 365 -257
0 -258 1 30 22 c16 12 38 32 49 44 11 13 24 23 29 23 9 0 107 81 141 117 20
22 29 23 179 23 l157 0 0 -226z m-1928 160 c30 -16 68 -80 68 -116 0 -56 -75
-128 -132 -128 -46 0 -98 32 -119 72 -24 48 -24 82 1 123 44 70 107 87 182 49z"/>
<path d="M4110 3170 l0 -110 -130 0 -130 0 0 -45 0 -45 180 0 180 0 0 155 0
155 -50 0 -50 0 0 -110z"/>
<path d="M560 2855 l0 -155 158 0 158 0 3 45 2 45 -116 0 -115 0 0 110 0 110
-45 0 -45 0 0 -155z"/>
<path d="M1709 3113 c-76 -190 -167 -288 -298 -320 l-71 -18 1 -50 c2 -185 89
-668 140 -782 11 -23 19 -47 19 -52 0 -6 4 -11 9 -11 5 0 20 -17 32 -37 31
-50 37 -57 159 -181 105 -107 316 -299 348 -316 9 -5 33 -24 52 -43 19 -18 40
-33 47 -33 7 0 13 -4 13 -9 0 -4 18 -21 40 -36 68 -47 119 -36 220 50 182 155
265 228 268 237 2 4 8 8 13 8 11 0 259 243 259 254 0 4 23 34 50 67 28 33 50
66 50 73 0 8 7 27 15 42 8 16 15 37 15 47 0 9 4 17 9 17 5 0 12 26 16 58 4 31
11 62 16 68 5 7 12 43 16 80 3 38 9 74 13 79 4 6 13 64 20 130 6 66 16 140 20
165 8 40 14 135 11 168 0 6 -12 12 -26 12 -63 0 -181 67 -225 127 -14 18 -32
43 -42 54 -9 11 -29 50 -44 87 -15 37 -32 73 -37 80 -7 9 -132 12 -563 12
l-554 0 -11 -27z m1151 -412 c0 -5 9 -13 20 -16 45 -14 8 -134 -52 -170 -39
-23 -35 -35 12 -35 22 0 40 5 40 10 0 6 10 10 21 10 18 0 19 -2 9 -15 -9 -11
-35 -15 -107 -15 -84 0 -93 2 -79 15 8 8 18 15 23 15 4 0 26 16 48 36 l40 35
-39 -6 c-28 -5 -43 -2 -57 11 -29 27 -24 114 7 114 8 0 14 5 14 10 0 6 23 10
50 10 28 0 50 -4 50 -9z m-296 -104 c7 -11 6 -30 -3 -64 -49 -172 -60 -268
-40 -353 25 -111 65 -167 127 -176 43 -6 147 10 154 24 2 4 31 22 66 40 71 38
92 33 92 -22 0 -86 -136 -127 -342 -105 -75 8 -112 16 -122 28 -37 42 -78 138
-92 218 -13 75 -13 94 1 175 10 57 25 104 40 129 14 21 25 43 25 48 0 16 62
82 73 78 6 -2 15 -11 21 -20z m-461 -28 c31 -7 57 -16 57 -22 0 -6 3 -7 6 -4
4 4 20 -5 36 -18 16 -14 33 -25 37 -25 13 0 41 -58 35 -74 -3 -8 -15 -18 -25
-21 -23 -8 -79 3 -79 14 0 13 -72 80 -104 96 -15 8 -37 15 -47 15 -22 0 -67
-26 -87 -50 -19 -22 -58 -101 -65 -131 l-6 -25 107 -13 c275 -33 314 -42 347
-85 27 -36 25 -55 -13 -136 -19 -39 -83 -110 -100 -110 -6 0 -12 -5 -14 -10
-2 -6 -41 -17 -86 -26 -77 -14 -90 -14 -155 0 -63 15 -79 23 -124 67 -40 38
-53 57 -53 80 0 22 5 30 25 35 44 11 69 -4 120 -74 l51 -67 55 -3 c50 -3 58 0
95 32 47 40 89 127 71 145 -6 6 -19 11 -28 11 -10 0 -20 4 -23 9 -3 4 -34 14
-68 21 -35 7 -67 17 -72 21 -6 5 -23 9 -38 9 -15 0 -28 4 -28 9 0 5 -35 12
-77 16 -107 8 -123 16 -123 59 0 44 20 90 64 147 44 58 94 90 166 105 72 16
77 16 143 3z"/>
<path d="M2762 2678 c-7 -7 -12 -27 -12 -45 0 -27 5 -34 26 -39 42 -11 78 7
82 39 2 16 -2 35 -9 43 -14 17 -70 19 -87 2z"/>
<path d="M1900 620 l0 -120 -120 0 -120 0 0 -45 0 -45 165 0 165 0 0 165 0
165 -45 0 -45 0 0 -120z"/>
</g>
</svg>
